<svg xmlns="http://www.w3.org/2000/svg" width="308" height="296"><path fill="#030303" d="M171 0v2l2-1q10 0 20 4l8 3 11 4 6 1 4 4h2v2l3 1q7 1 10 7l5 2v2l2 1 2 1 2 1 5 5 11 10 1 4h2v2h2l3 5 2 2 11 19 2 2 2 8 2 1v4l3 1h-2v2l2 1 3 12 1 3 1 16 3-1v2h-2l1 3v25l1 4-2 1-1 5a107 107 0 0 1-12 42l-3 3v3l-4 6-3 5-9 12-3 3-1 2h-2l-1 4h-2v2q-4 5-7 4v2h-2v2l-4 3-6 5-7 3v2h-3v2l-3 2-7 3-2 1-2 1-5 3-4 1-5 3h-7l-1 2-5 1-12 2h-9l-1 2h-29v-1l-10-2-1 2v-2h-8v-2h-3l-1 2v-3l-4 1v-2l-9-2h-4l-1-1q-4-4-10-6c-7-3-7-3-8-5l-2-1-9-5-7-5-4-4-5-4-8-8v-2h-2l-5-6-2-4-2-1-3-5-2-4-2-1c-4-6-4-6-4-10l-2-1-4-9-1-6h-2v-4l-1-3v-2l-2-1-2-8v-2l-1-15-2-1 1-2-2-1h2v-3q-4-27 6-53l-2-1 2-1 1-7 2-1 3-5 1-3 2-7h2l1-3 4-8 1-2 4-5 1-2h2l1-4h2v-2h2l1-2q5-7 12-13l2-3 2-2h3v-2l2-1 4-3 4-2 2-2 7-3 1-2 3-1 2-2h3l1-2 4-1 9-4 6-1 1-2h5l1-3v3l2-1c17-6 36-4 53-4m-59 25-5 1-10 5-7 3v2l-2 1-14 8v2l-2 1q-5 2-8 6l-3 3-2 4-2 1-5 5v2l-3 1-10 16-2 3a110 110 0 0 0-12 37l-1 22v3c-1 10-1 10 2 19l1 4q3 21 14 39l2 4h2v2l5 7h2v2l6 8 2 2 4 4 2 2 4 1 1 2 7 7 2 1a102 102 0 0 0 41 18l3 1 2 1c15 3 36 4 51 0l3-1q15-2 28-9l9-4v-2l5-1v-2l4-1v-2h2l7-5 3-2 2-2v-2l3-1v-2l2-1 3-4h2l1-4h2v-2h2l3-7 3-1q16-24 20-53l1-3v-20c0-15-2-35-11-49l-2-5-3-6-4-7h-2l-1-4h-2l-1-3-11-13-4-4h-2l-1-2q-2-4-7-7l-2-1a122 122 0 0 0-47-21l-3-1c-21-6-47-4-67 4"/><path fill="#030303" d="M69 172q4 4 4 9h2l3 5q13 18 32 28h2v2h4v2l3-1v2h4l9 3h5l4 1q20 4 39-3h3l9-4 4-2q11-5 19-13l6-5 3-5h2v-2l4-3 5-8 4-4 7-1v2l2 1 3 4 2 1q-4 11-12 21l-2 2-3 4h-2l-2 4h-2v2l-4 3-2 2-2 2-5 3-2 2-4 3-8 3-3 1-1 3v-2l-2 1q-35 15-72 5l-1 2v-3h-4l-11-4-2-1-15-8-2-1-4-3v-2l-2-1q-11-7-19-18v-2h-2v-2l-2-1q-4-4-5-10l-2-1v-9q6-8 15-4"/><path fill="#020202" d="M189 76h2q7 0 13 3v2l3 1q5 5 6 11l2 1q2 11-2 22-7 12-19 14-9 3-19-2l-2-1-5-5-2-1q-5-7-5-18v-3l-1-5h2v-4h2l1-2 5-7 3-2q7-5 16-4m-76-3h4l10 4 3 2 2 1v2h2v3h2v2l1 3 2 1 1 7h2v2h-2v2q-1 13-11 21h-2v2l-6 2-4 1h-9l-2 1v-2h-3q-10-3-15-13t-2-21c3-10 3-10 6-13l5-1v-2l3-1q7-4 13-3"/><path fill="#1d1d1d" d="m124 272 1 3-3 3h-2v-5l4 1z"/><path fill="#fff" d="m301 290 1 2-2-1zm-32 0 1 2-2-1zm-32 0 1 2-2-1zm-32 0 1 2-2-1zm-96 0 1 2-2-1zm-32 0 1 2-2-1zm-32 0 1 2-2-1zm-32 0 1 2-2-1zm288-32 1 2-2-1zm-32 0 1 2-2-1zm-64 0 1 2-2-1zm-32 0 1 2-2-1zm-32 0 1 2-2-1zm-32 0 1 2-2-1zm-64 0 1 2-2-1zm-32 0 1 2-2-1zm288-32 1 2-2-1zm-64 0 1 2-2-1zm-160 0 1 2-2-1zm-64 0 1 2-2-1zm288-32 1 2-2-1zm-32 0 1 2-2-1zm-64 0 1 2-2-1zm-32 0 1 2-2-1zm-32 0 1 2-2-1zm-32 0 1 2-2-1zm-64 0 1 2-2-1zm224-32 1 2-2-1zm-32 0 1 2-2-1zm-32 0 1 2-2-1zm-32 0 1 2-2-1zm-32 0 1 2-2-1zm-32 0 1 2-2-1zm-32 0 1 2-2-1zm-32 0 1 2-2-1zm224-32 1 2-2-1zm-32 0 1 2-2-1zm-32 0 1 2-2-1zm-32 0 1 2-2-1zm-32 0 1 2-2-1zm-32 0 1 2-2-1zm-32 0 1 2-2-1zm-32 0 1 2-2-1zm256-32 1 2-2-1zm-32 0 1 2-2-1zm-32 0 1 2-2-1zM77 98l1 2-2-1zm-32 0 1 2-2-1zm256-32 1 2-2-1zm-64 0 1 2-2-1zm-32 0 1 2-2-1zm-32 0 1 2-2-1zm-32 0 1 2-2-1zm-32 0 1 2-2-1zm-32 0 1 2-2-1zm-64 0 1 2-2-1zm288-32 1 2-2-1zm-32 0 1 2-2-1zm-64 0 1 2-2-1zm-32 0 1 2-2-1zm-32 0 1 2-2-1zm-32 0 1 2-2-1zm-64 0 1 2-2-1zm-32 0 1 2-2-1zM301 2l1 2-2-1zm-32 0 1 2-2-1zm-32 0 1 2-2-1zm-32 0 1 2-2-1zm-96 0 1 2-2-1zM77 2l1 2-2-1zM45 2l1 2-2-1zM13 2l1 2-2-1zm285 293 2 1Zm-32 0 2 1Zm-32 0 2 1Zm-32 0 2 1Zm-32 0 2 1Zm-64 0 2 1Zm-32 0 2 1Zm-32 0 2 1Zm-32 0 2 1Zm272-6 2 1Zm-32 0 2 1Zm-32 0 2 1Zm-128 0 2 1Zm-32 0 2 1Zm-32 0 2 1Zm266-1 2 1Zm-32 0 2 1Zm-32 0 2 1Zm-128 0 2 1Zm-32 0 2 1Zm-32 0 2 1Zm-32 0 2 1Zm297-1 2 1Zm-13 0 2 1Zm-19 0 2 1Zm-13 0 2 1Zm-19 0 2 1Zm-13 0 2 1Zm-19 0 2 1Zm-109 0 2 1Zm-19 0 2 1Zm-13 0 2 1Zm-19 0 2 1Zm-13 0 2 1Zm-19 0 2 1Zm-13 0 2 1Zm295-1 2 1Zm-32 0 2 1Zm-32 0 2 1Zm-160 0 2 1Zm-32 0 2 1Zm-32 0 2 1Zm269-17 2 1Zm-32 0 2 1Zm-64 0 2 1Zm-32 0 2 1Zm-32 0 2 1Zm-64 0 2 1Zm-32 0 2 1Zm278-6 2 1Zm-32 0 2 1Zm-64 0 2 1Zm-32 0 2 1Zm-32 0 2 1Zm-32 0 2 1Zm-64 0 2 1Zm-32 0 2 1Zm272-6 2 1Zm-64 0 2 1Zm-32 0 2 1Zm-32 0 2 1Zm-32 0 2 1Zm-32 0 2 1Zm-64 0 2 1Zm266-1 2 1Zm-32 0 2 1Zm-64 0 2 1Zm-32 0 2 1Zm-32 0 2 1Zm-32 0 2 1Zm-64 0 2 1Zm-32 0 2 1Zm297-1 2 1Zm-13 0 2 1Zm-19 0 2 1Zm-13 0 2 1Zm-51 0 2 1Zm-13 0 2 1Zm-19 0 2 1Zm-13 0 2 1Zm-19 0 2 1Zm-13 0 2 1Zm-19 0 2 1Zm-13 0 2 1Zm-51 0 2 1Zm-13 0 2 1Zm-19 0 2 1Zm-13 0 2 1Zm295-1 2 1Zm-32 0 2 1Zm-64 0 2 1Zm-32 0 2 1Zm-32 0 2 1Zm-32 0 2 1Zm-64 0 2 1Zm-32 0 2 1Zm269-17 2 1Zm-64 0 2 1Zm-128 0 2 1Zm-64 0 2 1Zm278-6 2 1Zm-64 0 2 1Zm-160 0 2 1Zm-64 0 2 1Zm272-6 2 1Zm-32 0 2 1Zm-32 0 2 1Zm-160 0 2 1Zm234-1 2 1Zm-64 0 2 1Zm-160 0 2 1Zm-64 0 2 1Zm297-1 2 1Zm-13 0 2 1Zm-51 0 2 1Zm-13 0 2 1Zm-64 0 2 1Zm-83 0 2 1Zm-13 0 2 1Zm-51 0 2 1Zm-13 0 2 1Zm295-1 2 1Zm-64 0 2 1Zm-64 0 2 1Zm-96 0 2 1Zm-64 0 2 1Zm237-17 2 1Zm-64 0 2 1Zm-32 0 2 1Zm-32 0 2 1Zm-64 0 2 1Zm246-6 2 1Zm-32 0 2 1Zm-64 0 2 1Zm-32 0 2 1Zm-32 0 2 1Zm-32 0 2 1Zm-64 0 2 1Zm-32 0 2 1Zm240-6 2 1Zm-32 0 2 1Zm-32 0 2 1Zm-32 0 2 1Zm-32 0 2 1Zm-32 0 2 1Zm170-1 2 1Zm-64 0 2 1Zm-32 0 2 1Zm-32 0 2 1Zm-32 0 2 1Zm-64 0 2 1Zm-32 0 2 1Zm297-1 2 1Zm-32 0 2 1Zm-13 0 2 1Zm-51 0 2 1Zm-13 0 2 1Zm-19 0 2 1Zm-13 0 2 1Zm-19 0 2 1Zm-13 0 2 1Zm-19 0 2 1Zm-13 0 2 1Zm-51 0 2 1Zm-13 0 2 1Zm-32 0 2 1Zm295-1 2 1Zm-32 0 2 1Zm-64 0 2 1Zm-32 0 2 1Zm-32 0 2 1Zm-32 0 2 1Zm-64 0 2 1Zm-32 0 2 1Zm269-17 2 1Zm-64 0 2 1Zm-32 0 2 1Zm-32 0 2 1Zm-32 0 2 1Zm-32 0 2 1Zm-32 0 2 1Zm214-6 2 1Zm-32 0 2 1Zm-32 0 2 1Zm-32 0 2 1Zm-32 0 2 1Zm-32 0 2 1Zm-32 0 2 1Zm-32 0 2 1Zm208-6 2 1Zm-32 0 2 1Zm-32 0 2 1Zm-32 0 2 1Zm-32 0 2 1Zm-32 0 2 1Zm-32 0 2 1Zm-32 0 2 1Zm234-1 2 1Zm-32 0 2 1Zm-32 0 2 1Zm-32 0 2 1Zm-32 0 2 1Zm-32 0 2 1Zm-32 0 2 1Zm-32 0 2 1Zm265-1 2 1Zm-32 0 2 1Zm-13 0 2 1Zm-19 0 2 1Zm-13 0 2 1Zm-19 0 2 1Zm-13 0 2 1Zm-19 0 2 1Zm-13 0 2 1Zm-19 0 2 1Zm-13 0 2 1Zm-19 0 2 1Zm-13 0 2 1Zm-19 0 2 1Zm-13 0 2 1Zm-19 0 2 1Zm-13 0 2 1Zm-32 0 2 1Zm263-1 2 1Zm-32 0 2 1Zm-32 0 2 1Zm-32 0 2 1Zm-32 0 2 1Zm-32 0 2 1Zm-32 0 2 1Zm-32 0 2 1Zm237-17 2 1Zm-32 0 2 1Zm-32 0 2 1Zm-32 0 2 1Zm-32 0 2 1Zm-32 0 2 1Zm-32 0 2 1Zm-32 0 2 1Zm214-6 2 1Zm-32 0 2 1Zm-32 0 2 1Zm-32 0 2 1Zm-32 0 2 1Zm-32 0 2 1Zm-32 0 2 1Zm-32 0 2 1Zm208-6 2 1Zm-32 0 2 1Zm-64 0 2 1Zm-32 0 2 1Zm-32 0 2 1Zm-32 0 2 1Zm-32 0 2 1Zm234-1 2 1Zm-32 0 2 1Zm-64 0 2 1Zm-32 0 2 1Zm-32 0 2 1Zm-32 0 2 1Zm-32 0 2 1Zm-32 0 2 1Zm297-1 2 1Zm-32 0 2 1Zm-13 0 2 1Zm-19 0 2 1Zm-13 0 2 1Zm-19 0 2 1Zm-45 0 2 1Zm-19 0 2 1Zm-13 0 2 1Zm-32 0 2 1Zm-19 0 2 1Zm-13 0 2 1Zm-19 0 2 1Zm-13 0 2 1Zm-32 0 2 1Zm263-1 2 1Zm-32 0 2 1Zm-64 0 2 1Zm-32 0 2 1Zm-64 0 2 1Zm-32 0 2 1Zm205-17 2 1Zm-96 0 2 1Zm-64 0 2 1Zm-32 0 2 1Zm246-6 2 1Zm-32 0 2 1Zm-32 0 2 1Zm-160 0 2 1Zm-32 0 2 1Zm208-6 2 1Zm-32 0 2 1Zm-64 0 2 1Zm-96 0 2 1Zm202-1 2 1Zm-32 0 2 1ZM68 96l2 1Zm-32 0 2 1ZM4 96l2 1Zm297-1 2 1Zm-45 0 2 1Zm-19 0 2 1Zm-13 0 2 1Zm-83 0 2 1Zm-64 0 2 1Zm-13 0 2 1Zm-19 0 2 1ZM0 95l2 1Zm295-1 2 1Zm-32 0 2 1Zm-32 0 2 1ZM71 94l2 1Zm-32 0 2 1ZM7 94l2 1Zm237-17 2 1Zm-32 0 2 1Zm-64 0 2 1Zm-64 0 2 1Zm-32 0 2 1Zm-32 0 2 1Zm278-6 2 1Zm-64 0 2 1Zm-32 0 2 1Zm-32 0 2 1Zm-32 0 2 1Zm-32 0 2 1Zm-32 0 2 1Zm-64 0 2 1Zm272-6 2 1Zm-32 0 2 1Zm-32 0 2 1Zm-32 0 2 1Zm-32 0 2 1Zm-32 0 2 1Zm-32 0 2 1Zm-32 0 2 1Zm-32 0 2 1Zm266-1 2 1Zm-64 0 2 1Zm-32 0 2 1Zm-32 0 2 1Zm-32 0 2 1Zm-32 0 2 1Zm-32 0 2 1ZM4 64l2 1Zm297-1 2 1Zm-13 0 2 1Zm-51 0 2 1Zm-13 0 2 1Zm-19 0 2 1Zm-13 0 2 1Zm-19 0 2 1Zm-13 0 2 1Zm-19 0 2 1Zm-13 0 2 1Zm-19 0 2 1Zm-13 0 2 1Zm-19 0 2 1Zm-13 0 2 1Zm-51 0 2 1ZM0 63l2 1Zm295-1 2 1Zm-64 0 2 1Zm-32 0 2 1Zm-32 0 2 1Zm-32 0 2 1Zm-32 0 2 1Zm-32 0 2 1ZM7 62l2 1Zm269-17 2 1Zm-64 0 2 1Zm-32 0 2 1Zm-32 0 2 1Zm-32 0 2 1Zm-32 0 2 1Zm-64 0 2 1Zm278-6 2 1Zm-32 0 2 1Zm-64 0 2 1Zm-32 0 2 1Zm-32 0 2 1Zm-32 0 2 1Zm-64 0 2 1Zm-32 0 2 1Zm272-6 2 1Zm-32 0 2 1Zm-64 0 2 1Zm-32 0 2 1Zm-32 0 2 1Zm-96 0 2 1Zm266-1 2 1Zm-32 0 2 1Zm-64 0 2 1Zm-32 0 2 1Zm-32 0 2 1Zm-32 0 2 1Zm-64 0 2 1ZM4 32l2 1Zm297-1 2 1Zm-13 0 2 1Zm-19 0 2 1Zm-13 0 2 1Zm-51 0 2 1Zm-13 0 2 1Zm-19 0 2 1Zm-13 0 2 1Zm-19 0 2 1Zm-13 0 2 1Zm-19 0 2 1Zm-64 0 2 1Zm-13 0 2 1Zm-19 0 2 1ZM0 31l2 1Zm295-1 2 1Zm-32 0 2 1Zm-64 0 2 1Zm-32 0 2 1Zm-32 0 2 1Zm-32 0 2 1Zm-64 0 2 1ZM7 30l2 1Zm269-17 2 1Zm-32 0 2 1ZM84 13l2 1Zm-32 0 2 1Zm-32 0 2 1Zm278-6 2 1Zm-32 0 2 1Zm-32 0 2 1Zm-32 0 2 1ZM74 7l2 1ZM42 7l2 1ZM10 7l2 1Zm272-6 2 1Zm-32 0 2 1Zm-32 0 2 1Zm-32 0 2 1Zm-64 0 2 1ZM90 1l2 1ZM58 1l2 1ZM26 1l2 1Zm266-1 2 1Zm-32 0 2 1Zm-32 0 2 1Zm-32 0 2 1Zm-64 0 2 1Zm-32 0 2 1ZM68 0l2 1ZM36 0l2 1ZM4 0l2 1Z"/></svg>